<mxfile host="Electron" agent="Mozilla/5.0 (Windows NT 10.0; Win64; x64) AppleWebKit/537.36 (KHTML, like Gecko) draw.io/24.7.17 Chrome/128.0.6613.36 Electron/32.0.1 Safari/537.36" version="24.7.17">
  <diagram name="ページ1" id="ZK-1MC-dQsiciD7WhR__">
    <mxGraphModel dx="1036" dy="606" grid="1" gridSize="10" guides="1" tooltips="1" connect="1" arrows="1" fold="1" page="1" pageScale="1" pageWidth="827" pageHeight="1169" math="0" shadow="0">
      <root>
        <mxCell id="0" />
        <mxCell id="1" parent="0" />
        <mxCell id="hy0ywFwxUR6JJRfLlFSs-1" value="AWS Cloud" style="sketch=0;outlineConnect=0;gradientColor=none;html=1;whiteSpace=wrap;fontSize=12;fontStyle=0;shape=mxgraph.aws4.group;grIcon=mxgraph.aws4.group_aws_cloud;strokeColor=#AAB7B8;fillColor=none;verticalAlign=top;align=left;spacingLeft=30;fontColor=#AAB7B8;dashed=0;" vertex="1" parent="1">
          <mxGeometry x="330" y="110" width="400" height="290" as="geometry" />
        </mxCell>
        <mxCell id="hy0ywFwxUR6JJRfLlFSs-2" value="Next.js" style="image;aspect=fixed;html=1;points=[];align=center;fontSize=12;image=img/lib/azure2/general/Browser.svg;" vertex="1" parent="1">
          <mxGeometry x="70" y="204" width="127.5" height="102" as="geometry" />
        </mxCell>
        <mxCell id="hy0ywFwxUR6JJRfLlFSs-3" value="Cognito" style="sketch=0;points=[[0,0,0],[0.25,0,0],[0.5,0,0],[0.75,0,0],[1,0,0],[0,1,0],[0.25,1,0],[0.5,1,0],[0.75,1,0],[1,1,0],[0,0.25,0],[0,0.5,0],[0,0.75,0],[1,0.25,0],[1,0.5,0],[1,0.75,0]];outlineConnect=0;fontColor=#232F3E;fillColor=#DD344C;strokeColor=#ffffff;dashed=0;verticalLabelPosition=bottom;verticalAlign=top;align=center;html=1;fontSize=12;fontStyle=0;aspect=fixed;shape=mxgraph.aws4.resourceIcon;resIcon=mxgraph.aws4.cognito;" vertex="1" parent="1">
          <mxGeometry x="385" y="160" width="58" height="58" as="geometry" />
        </mxCell>
        <mxCell id="hy0ywFwxUR6JJRfLlFSs-4" value="API Gateway" style="sketch=0;points=[[0,0,0],[0.25,0,0],[0.5,0,0],[0.75,0,0],[1,0,0],[0,1,0],[0.25,1,0],[0.5,1,0],[0.75,1,0],[1,1,0],[0,0.25,0],[0,0.5,0],[0,0.75,0],[1,0.25,0],[1,0.5,0],[1,0.75,0]];outlineConnect=0;fontColor=#232F3E;fillColor=#8C4FFF;strokeColor=#ffffff;dashed=0;verticalLabelPosition=bottom;verticalAlign=top;align=center;html=1;fontSize=12;fontStyle=0;aspect=fixed;shape=mxgraph.aws4.resourceIcon;resIcon=mxgraph.aws4.api_gateway;" vertex="1" parent="1">
          <mxGeometry x="385" y="280" width="58" height="58" as="geometry" />
        </mxCell>
        <mxCell id="hy0ywFwxUR6JJRfLlFSs-5" style="edgeStyle=orthogonalEdgeStyle;rounded=0;orthogonalLoop=1;jettySize=auto;html=1;entryX=0;entryY=0.5;entryDx=0;entryDy=0;entryPerimeter=0;" edge="1" parent="1" source="hy0ywFwxUR6JJRfLlFSs-2" target="hy0ywFwxUR6JJRfLlFSs-3">
          <mxGeometry relative="1" as="geometry" />
        </mxCell>
        <mxCell id="hy0ywFwxUR6JJRfLlFSs-6" value="① Cognitoで認証" style="edgeLabel;html=1;align=center;verticalAlign=middle;resizable=0;points=[];" vertex="1" connectable="0" parent="hy0ywFwxUR6JJRfLlFSs-5">
          <mxGeometry x="0.342" y="2" relative="1" as="geometry">
            <mxPoint as="offset" />
          </mxGeometry>
        </mxCell>
        <mxCell id="hy0ywFwxUR6JJRfLlFSs-7" value="Lambda" style="sketch=0;points=[[0,0,0],[0.25,0,0],[0.5,0,0],[0.75,0,0],[1,0,0],[0,1,0],[0.25,1,0],[0.5,1,0],[0.75,1,0],[1,1,0],[0,0.25,0],[0,0.5,0],[0,0.75,0],[1,0.25,0],[1,0.5,0],[1,0.75,0]];outlineConnect=0;fontColor=#232F3E;fillColor=#ED7100;strokeColor=#ffffff;dashed=0;verticalLabelPosition=bottom;verticalAlign=top;align=center;html=1;fontSize=12;fontStyle=0;aspect=fixed;shape=mxgraph.aws4.resourceIcon;resIcon=mxgraph.aws4.lambda;" vertex="1" parent="1">
          <mxGeometry x="500" y="279" width="60" height="60" as="geometry" />
        </mxCell>
        <mxCell id="hy0ywFwxUR6JJRfLlFSs-8" value="DynamoDB" style="sketch=0;points=[[0,0,0],[0.25,0,0],[0.5,0,0],[0.75,0,0],[1,0,0],[0,1,0],[0.25,1,0],[0.5,1,0],[0.75,1,0],[1,1,0],[0,0.25,0],[0,0.5,0],[0,0.75,0],[1,0.25,0],[1,0.5,0],[1,0.75,0]];outlineConnect=0;fontColor=#232F3E;fillColor=#C925D1;strokeColor=#ffffff;dashed=0;verticalLabelPosition=bottom;verticalAlign=top;align=center;html=1;fontSize=12;fontStyle=0;aspect=fixed;shape=mxgraph.aws4.resourceIcon;resIcon=mxgraph.aws4.dynamodb;" vertex="1" parent="1">
          <mxGeometry x="620" y="279" width="60" height="60" as="geometry" />
        </mxCell>
        <mxCell id="hy0ywFwxUR6JJRfLlFSs-9" style="edgeStyle=orthogonalEdgeStyle;rounded=0;orthogonalLoop=1;jettySize=auto;html=1;entryX=0;entryY=0.5;entryDx=0;entryDy=0;entryPerimeter=0;" edge="1" parent="1" source="hy0ywFwxUR6JJRfLlFSs-2" target="hy0ywFwxUR6JJRfLlFSs-4">
          <mxGeometry relative="1" as="geometry" />
        </mxCell>
        <mxCell id="hy0ywFwxUR6JJRfLlFSs-10" value="②Cognitoの認証を使用してAPI呼び出し" style="edgeLabel;html=1;align=center;verticalAlign=middle;resizable=0;points=[];" vertex="1" connectable="0" parent="hy0ywFwxUR6JJRfLlFSs-9">
          <mxGeometry x="0.3259" y="-1" relative="1" as="geometry">
            <mxPoint y="-40" as="offset" />
          </mxGeometry>
        </mxCell>
        <mxCell id="hy0ywFwxUR6JJRfLlFSs-11" style="edgeStyle=orthogonalEdgeStyle;rounded=0;orthogonalLoop=1;jettySize=auto;html=1;exitX=1;exitY=0.5;exitDx=0;exitDy=0;exitPerimeter=0;entryX=0;entryY=0.5;entryDx=0;entryDy=0;entryPerimeter=0;" edge="1" parent="1" source="hy0ywFwxUR6JJRfLlFSs-4" target="hy0ywFwxUR6JJRfLlFSs-7">
          <mxGeometry relative="1" as="geometry" />
        </mxCell>
        <mxCell id="hy0ywFwxUR6JJRfLlFSs-12" value="③処理実行" style="edgeLabel;html=1;align=center;verticalAlign=middle;resizable=0;points=[];" vertex="1" connectable="0" parent="hy0ywFwxUR6JJRfLlFSs-11">
          <mxGeometry x="-0.2421" y="1" relative="1" as="geometry">
            <mxPoint x="5" y="22" as="offset" />
          </mxGeometry>
        </mxCell>
        <mxCell id="hy0ywFwxUR6JJRfLlFSs-13" style="edgeStyle=orthogonalEdgeStyle;rounded=0;orthogonalLoop=1;jettySize=auto;html=1;exitX=1;exitY=0.5;exitDx=0;exitDy=0;exitPerimeter=0;entryX=0;entryY=0.5;entryDx=0;entryDy=0;entryPerimeter=0;" edge="1" parent="1" source="hy0ywFwxUR6JJRfLlFSs-7" target="hy0ywFwxUR6JJRfLlFSs-8">
          <mxGeometry relative="1" as="geometry" />
        </mxCell>
        <mxCell id="hy0ywFwxUR6JJRfLlFSs-14" value="④データ取得" style="edgeLabel;html=1;align=center;verticalAlign=middle;resizable=0;points=[];" vertex="1" connectable="0" parent="hy0ywFwxUR6JJRfLlFSs-13">
          <mxGeometry x="-0.2133" y="4" relative="1" as="geometry">
            <mxPoint x="6" y="25" as="offset" />
          </mxGeometry>
        </mxCell>
      </root>
    </mxGraphModel>
  </diagram>
</mxfile>
